<svg width="64" height="64" viewBox="0 0 64 64" fill="none" xmlns="http://www.w3.org/2000/svg">
<circle cx="32" cy="32" r="30" fill="#1a1a1a"/>
<path d="M32 18C24.268 18 18 24.268 18 32C18 39.732 24.268 46 32 46C39.732 46 46 39.732 46 32C46 24.268 39.732 18 32 18ZM32 26C34.2091 26 36 27.7909 36 30C36 32.2091 34.2091 34 32 34C29.7909 34 28 32.2091 28 30C28 27.7909 29.7909 26 32 26ZM32 42.4C28.6667 42.4 25.8333 40.68 24 38.04C24.0667 35.0267 29.3333 33.2 32 33.2C34.6667 33.2 40.0667 35.0267 40 38.04C38.1667 40.68 35.3333 42.4 32 42.4Z" fill="white"/>
</svg>
